<svg t="1722512846439" class="icon" viewBox="0 0 1024 1024" version="1.1" xmlns="http://www.w3.org/2000/svg" p-id="8594" width="200" height="200"><path d="M512 512m-495.483871 0a495.483871 495.483871 0 1 0 990.967742 0 495.483871 495.483871 0 1 0-990.967742 0Z" fill="#1CAAF4" p-id="8595"></path><path d="M762.186323 776.258065H261.813677a13.774452 13.774452 0 0 1-13.939612-13.939613V261.813677a13.774452 13.774452 0 0 1 13.939612-13.939612h500.372646a13.774452 13.774452 0 0 1 13.939612 13.939612v500.372646a13.774452 13.774452 0 0 1-13.939612 14.071742z m-13.939613-301.353291h-74.15742V624.309677a55.923613 55.923613 0 0 1-55.461161 55.196904h-80.565677v68.839225h210.184258v-273.474064z m-238.063484 273.474065v-68.839226H402.993548a55.428129 55.428129 0 0 1-55.461161-55.494194v-80.268387H275.885419v204.601807h234.529033z m-234.529032-232.481033h71.646967V408.27871a55.428129 55.428129 0 0 1 55.461162-55.461162h83.076129V280.774194a12.618323 12.618323 0 0 1 2.048-5.020904H275.654194v240.012387z m236.015483-240.012387a12.618323 12.618323 0 0 1 2.048 5.020904v71.911225h104.811355a55.428129 55.428129 0 0 1 55.461162 55.461162v38.746838h74.157419V275.885419H511.669677z m-40.596645 237.237678A40.695742 40.695742 0 1 0 512 472.36129a40.728774 40.728774 0 0 0-40.695742 40.728775z m0 0" fill="#FFFFFF" p-id="8596" data-spm-anchor-id="a313x.search_index.0.i0.6e3b3a81oJdvsn" class="selected"></path></svg>